<svg width="24" height="24" viewBox="0 0 24 24" fill="none" xmlns="http://www.w3.org/2000/svg">
<g clip-path="url(#clip0)">
<path d="M22.9909 8.72528C22.9018 8.62023 22.7711 8.55967 22.6333 8.55967H5.46584L4.88543 5.686C4.84128 5.46732 4.64909 5.31006 4.42596 5.31006H1.36676C1.10787 5.31006 0.89801 5.51992 0.89801 5.77881C0.89801 6.0377 1.10787 6.24756 1.36676 6.24756H4.04243L6.89135 20.3531C6.45209 20.7343 6.17379 21.2967 6.17379 21.923C6.17379 23.0683 7.10445 24 8.24834 24C9.39223 24 10.3229 23.0683 10.3229 21.923C10.3229 21.5025 10.1975 21.1108 9.9821 20.7834H16.4819C16.2665 21.1108 16.1411 21.5025 16.1411 21.923C16.1411 23.0683 17.0718 24 18.2157 24C19.3596 24 20.2903 23.0683 20.2903 21.923C20.2903 21.4961 20.161 21.0988 19.9395 20.7684C20.1413 20.7161 20.2903 20.5328 20.2903 20.3147C20.2903 20.0558 20.0804 19.8459 19.8215 19.8459H7.74532L7.57606 19.0077H19.4634C20.6167 19.0077 21.5908 18.1819 21.7794 17.0441L23.0957 9.10501C23.1183 8.96922 23.0799 8.83032 22.9909 8.72528ZM9.38543 21.923C9.38543 22.5513 8.87534 23.0625 8.24834 23.0625C7.62139 23.0625 7.11129 22.5513 7.11129 21.923C7.11129 21.2946 7.62139 20.7834 8.24834 20.7834C8.87534 20.7834 9.38543 21.2946 9.38543 21.923ZM18.2157 23.0625C17.5887 23.0625 17.0786 22.5513 17.0786 21.923C17.0786 21.2946 17.5887 20.7834 18.2157 20.7834C18.8427 20.7834 19.3528 21.2946 19.3528 21.923C19.3528 22.5513 18.8427 23.0625 18.2157 23.0625ZM20.8546 16.8908C20.7413 17.5742 20.1562 18.0703 19.4634 18.0703H7.38673L5.65521 9.49717H22.0804L20.8546 16.8908Z" fill="#E9E3FF"/>
<path d="M12.7384 16.7038C12.7715 16.9346 12.9692 17.106 13.2024 17.106H14.7977C15.0309 17.106 15.2286 16.9346 15.2617 16.7038L16.0792 10.9969C16.0984 10.8624 16.0584 10.726 15.9693 10.6233C15.8803 10.5207 15.7511 10.4617 15.6151 10.4617H12.3848C12.2489 10.4617 12.1197 10.5207 12.0306 10.6233C11.9416 10.726 11.9015 10.8624 11.9208 10.9969L12.7384 16.7038ZM15.0746 11.3992L14.3913 16.1685H13.6088L12.9256 11.3992H15.0746Z" fill="#E9E3FF"/>
<path d="M16.9809 17.106H19.0925C19.3118 17.106 19.5017 16.954 19.5499 16.7401L20.8333 11.0332C20.8645 10.8943 20.8309 10.7487 20.742 10.6375C20.653 10.5264 20.5183 10.4617 20.3759 10.4617H17.7984C17.5652 10.4617 17.3675 10.6331 17.3344 10.864L16.5169 16.5708C16.4976 16.7053 16.5377 16.8416 16.6268 16.9443C16.7158 17.047 16.845 17.106 16.9809 17.106ZM18.2048 11.3991H19.79L18.7174 16.1685H17.5216L18.2048 11.3991Z" fill="#E9E3FF"/>
<path d="M7.16474 11.0232L8.31736 16.7301C8.36151 16.9488 8.5537 17.106 8.77683 17.106H11.0192C11.1551 17.106 11.2843 17.047 11.3734 16.9443C11.4624 16.8417 11.5025 16.7054 11.4832 16.5708L10.6657 10.864C10.6326 10.6331 10.4349 10.4617 10.2017 10.4617H7.62421C7.48364 10.4617 7.35046 10.5248 7.26145 10.6336C7.17239 10.7424 7.1369 10.8854 7.16474 11.0232ZM9.79528 11.3992L10.4785 16.1685H9.16036L8.19707 11.3992H9.79528Z" fill="#E9E3FF"/>
<path d="M13.6255 7.02469C13.7141 7.14234 13.8528 7.21158 14 7.21158C14.1473 7.21158 14.286 7.14234 14.3746 7.02469L17.1276 3.36675C17.2344 3.22481 17.2518 3.03459 17.1725 2.87559C17.0932 2.71659 16.9308 2.61614 16.7531 2.61614H15.6888V0.46875C15.6888 0.209859 15.4789 0 15.2201 0H12.78C12.5212 0 12.3113 0.209859 12.3113 0.46875V2.61619H11.2471C11.0694 2.61619 10.907 2.71669 10.8276 2.87564C10.7483 3.03464 10.7657 3.22481 10.8725 3.3668L13.6255 7.02469ZM12.78 3.55369C13.0389 3.55369 13.2488 3.34383 13.2488 3.08494V0.9375H14.7514V3.08494C14.7514 3.34383 14.9613 3.55369 15.2201 3.55369H15.8136L14.0001 5.96334L12.1866 3.55369H12.78Z" fill="#E9E3FF"/>
</g>
<defs>
<clipPath id="clip0">
<rect width="24" height="24" fill="white"/>
</clipPath>
</defs>
</svg>
